<svg xmlns="http://www.w3.org/2000/svg" xmlns:xlink="http://www.w3.org/1999/xlink" width="500" zoomAndPan="magnify" viewBox="0 0 375 225" height="300" preserveAspectRatio="xMidYMid meet" version="1.0"><defs><g/><clipPath id="id1"><path d="M 140 49 L 223 49 L 223 114 L 140 114 Z M 140 49 " clip-rule="nonzero"/></clipPath><clipPath id="id2"><path d="M 214.960938 41.734375 L 227.953125 104.148438 L 147.1875 120.964844 L 134.191406 58.550781 Z M 214.960938 41.734375 " clip-rule="nonzero"/></clipPath><clipPath id="id3"><path d="M 214.960938 41.734375 L 227.953125 104.148438 L 147.1875 120.964844 L 134.191406 58.550781 Z M 214.960938 41.734375 " clip-rule="nonzero"/></clipPath><clipPath id="id4"><path d="M 165 57 L 213 57 L 213 126 L 165 126 Z M 165 57 " clip-rule="nonzero"/></clipPath><clipPath id="id5"><path d="M 183.867188 56.382812 L 213.769531 66.289062 L 193.25 128.230469 L 163.347656 118.324219 Z M 183.867188 56.382812 " clip-rule="nonzero"/></clipPath><clipPath id="id6"><path d="M 183.867188 56.382812 L 213.769531 66.289062 L 193.25 128.230469 L 163.347656 118.324219 Z M 183.867188 56.382812 " clip-rule="nonzero"/></clipPath></defs><g clip-path="url(#id1)"><g clip-path="url(#id2)"><g clip-path="url(#id3)"><path fill="rgb(56.858826%, 78.039551%, 50.588989%)" d="M 221.183594 72.210938 C 220.269531 68.796875 218.542969 65.65625 216.78125 62.570312 C 213.796875 57.304688 210.109375 51.832031 204.359375 49.933594 C 200.042969 48.546875 195.332031 49.425781 190.957031 50.691406 C 186.578125 51.957031 182.226562 53.574219 177.695312 53.605469 C 174.132812 53.636719 170.71875 52.671875 167.175781 52.546875 C 163.835938 52.429688 160.503906 53.074219 157.269531 53.949219 C 154.515625 54.675781 151.710938 55.664062 149.492188 57.496094 C 147.460938 59.242188 146.019531 61.621094 144.890625 64.039062 C 142.460938 69.265625 141.089844 74.929688 140.710938 80.695312 C 140.445312 84.808594 140.671875 89.074219 142.085938 92.941406 C 143.972656 98.082031 147.761719 102.320312 152.003906 105.800781 C 155.191406 108.382812 158.675781 110.652344 162.617188 111.964844 C 166.179688 113.152344 169.921875 113.488281 173.699219 113.515625 C 181.921875 113.578125 190.308594 111.984375 197.574219 108.1875 C 202.722656 105.492188 207.207031 101.816406 211.695312 98.144531 C 215.742188 94.8125 219.753906 90.324219 220.558594 87.570312 C 222.375 81.605469 222.964844 80.773438 221.183594 72.210938 Z M 221.183594 72.210938 " fill-opacity="1" fill-rule="nonzero"/></g></g></g><g clip-path="url(#id4)"><g clip-path="url(#id5)"><g clip-path="url(#id6)"><path fill="rgb(96.078491%, 93.728638%, 84.309387%)" d="M 186.382812 69.476562 C 187.058594 68.003906 187.824219 66.574219 188.558594 65.132812 C 188.90625 64.453125 189.257812 63.773438 189.578125 63.082031 C 189.976562 62.21875 190.417969 61.3125 190.589844 60.371094 C 190.660156 59.988281 190.921875 59.65625 191.347656 59.679688 C 191.703125 59.703125 192.101562 60.054688 192.035156 60.441406 C 191.710938 62.242188 190.792969 63.914062 189.96875 65.53125 C 189.226562 66.992188 188.441406 68.4375 187.757812 69.933594 C 187.597656 70.285156 187.246094 70.53125 186.84375 70.394531 C 186.5 70.277344 186.21875 69.835938 186.382812 69.476562 Z M 192.21875 71.96875 C 193.960938 69.113281 195.402344 66.074219 196.511719 62.914062 C 196.820312 62.03125 195.449219 61.578125 195.140625 62.460938 C 194.070312 65.503906 192.695312 68.414062 191.019531 71.167969 C 190.535156 71.964844 191.734375 72.773438 192.21875 71.96875 Z M 200.28125 64.164062 C 198.71875 66.976562 197.242188 69.871094 195.519531 72.585938 C 194.183594 74.679688 192.566406 76.902344 190.203125 77.882812 C 189.386719 78.222656 188.492188 78.394531 187.605469 78.359375 C 186.351562 78.304688 185.421875 77.414062 184.675781 76.46875 C 183.023438 74.363281 183.355469 71.222656 183.789062 68.75 C 184.398438 65.300781 185.789062 62 187.453125 58.9375 C 187.898438 58.125 186.703125 57.3125 186.253906 58.132812 C 184.59375 61.183594 183.203125 64.414062 182.507812 67.828125 C 181.957031 70.546875 181.488281 74.074219 183.003906 76.578125 C 183.535156 77.457031 184.265625 78.339844 185.132812 78.964844 C 183.214844 83.285156 181.355469 87.640625 179.261719 91.882812 C 177.8125 91.261719 176.238281 91.234375 174.972656 92.34375 C 174.402344 92.847656 174.089844 93.492188 173.78125 94.160156 C 171.882812 98.324219 169.984375 102.492188 168.085938 106.65625 C 167.296875 108.382812 166.511719 110.105469 165.726562 111.832031 C 165.417969 112.507812 165.160156 113.175781 165.183594 113.945312 C 165.214844 114.859375 165.574219 115.769531 166.210938 116.429688 C 166.683594 116.925781 167.265625 117.210938 167.875 117.488281 C 168.328125 117.695312 168.777344 117.902344 169.230469 118.109375 C 171.011719 118.863281 173.15625 118.128906 174.046875 116.378906 C 174.230469 116.019531 174.394531 115.644531 174.558594 115.277344 C 175.417969 113.394531 176.277344 111.507812 177.136719 109.625 C 178.949219 105.652344 180.773438 101.679688 182.574219 97.703125 C 183.023438 96.710938 183.117188 95.636719 182.71875 94.605469 C 182.300781 93.527344 181.484375 92.949219 180.566406 92.480469 C 182.640625 88.257812 184.503906 83.929688 186.410156 79.628906 C 187.382812 79.933594 188.5 79.839844 189.46875 79.632812 C 192.003906 79.097656 193.890625 77.25 195.421875 75.257812 C 196.582031 73.746094 197.527344 72.082031 198.449219 70.421875 C 199.460938 68.605469 200.472656 66.785156 201.480469 64.96875 C 201.933594 64.15625 200.734375 63.347656 200.28125 64.164062 Z M 211.625 72.339844 C 210.894531 74.125 210.011719 75.851562 209.195312 77.601562 C 207.707031 80.773438 206.21875 83.945312 204.730469 87.117188 C 203.507812 89.722656 202.191406 92.300781 201.066406 94.949219 C 200.101562 97.214844 199.167969 99.492188 198.21875 101.769531 C 198.296875 101.878906 198.371094 101.992188 198.433594 102.121094 C 198.890625 103.058594 198.796875 104.070312 198.378906 104.992188 C 196.5625 108.96875 194.75 112.945312 192.9375 116.921875 C 192.050781 118.867188 191.164062 120.808594 190.277344 122.757812 C 190.105469 123.132812 189.941406 123.515625 189.761719 123.886719 C 189.027344 125.449219 187.28125 126.242188 185.65625 125.5625 C 185.210938 125.363281 184.769531 125.160156 184.328125 124.957031 C 183.824219 124.726562 183.257812 124.523438 182.820312 124.167969 C 182.097656 123.582031 181.664062 122.707031 181.644531 121.769531 C 181.632812 121.09375 181.878906 120.53125 182.152344 119.9375 C 182.941406 118.207031 183.726562 116.480469 184.515625 114.75 C 186.453125 110.503906 188.386719 106.253906 190.324219 102.007812 C 190.519531 101.578125 190.699219 101.09375 190.972656 100.714844 C 191.523438 99.957031 192.378906 99.476562 193.308594 99.410156 C 193.46875 99.398438 193.621094 99.40625 193.773438 99.421875 C 194.210938 98.398438 194.644531 97.375 195.082031 96.351562 C 194.417969 96.0625 193.75 95.773438 193.082031 95.488281 C 192.738281 95.339844 192.476562 94.960938 192.625 94.570312 C 193.6875 91.8125 194.757812 89.050781 195.9375 86.339844 C 198.003906 81.582031 200.425781 76.925781 203.695312 72.878906 C 205.105469 71.132812 206.652344 69.300781 208.679688 68.261719 C 209.492188 67.84375 210.886719 67.246094 211.804688 67.589844 C 212.347656 67.789062 212.484375 68.25 212.375 68.648438 C 212.386719 68.671875 212.40625 68.695312 212.417969 68.71875 C 212.574219 69.0625 212.464844 69.421875 212.402344 69.777344 C 212.238281 70.65625 211.960938 71.511719 211.625 72.339844 Z M 210.898438 69.957031 C 210.953125 69.726562 210.984375 69.488281 211.035156 69.257812 C 211.03125 69.28125 211.171875 69.472656 211.066406 69.273438 C 211.011719 69.167969 210.941406 69.070312 210.878906 68.96875 C 210.488281 69.050781 209.976562 69.265625 209.804688 69.335938 C 209.371094 69.519531 208.949219 69.746094 208.558594 70.011719 C 207.726562 70.574219 206.996094 71.289062 206.320312 72.027344 C 200.503906 78.332031 197.28125 86.503906 194.234375 94.40625 C 194.910156 94.699219 195.582031 94.988281 196.253906 95.28125 C 196.585938 95.425781 196.875 95.8125 196.710938 96.195312 C 196.191406 97.414062 195.675781 98.628906 195.15625 99.847656 C 195.164062 99.851562 195.171875 99.851562 195.179688 99.859375 C 195.804688 100.144531 196.484375 100.398438 197.082031 100.753906 C 197.480469 99.800781 197.878906 98.851562 198.277344 97.898438 C 199.925781 93.953125 201.75 90.101562 203.566406 86.226562 C 205.035156 83.09375 206.507812 79.957031 207.980469 76.820312 C 208.683594 75.320312 209.417969 73.832031 210.078125 72.3125 C 210.40625 71.542969 210.703125 70.765625 210.898438 69.957031 Z M 210.898438 69.957031 " fill-opacity="1" fill-rule="nonzero"/></g></g></g><g fill="rgb(100%, 74.119568%, 34.899902%)" fill-opacity="1"><g transform="translate(45.991756, 167.851359)"><g><path d="M 28.558594 -14.25 C 28.0625 -16.957031 27.453125 -19.773438 26.292969 -22.316406 C 23.695312 -28.28125 19.167969 -29.605469 13.476562 -26.515625 C 13.367188 -26.457031 13.257812 -26.457031 12.816406 -26.347656 C 12.59375 -27.453125 12.375 -28.390625 12.152344 -29.386719 C 11.324219 -33.472656 10.550781 -37.617188 9.609375 -41.703125 C 9.113281 -43.859375 7.679688 -45.019531 6.019531 -45.019531 C 4.308594 -44.964844 2.871094 -43.636719 2.484375 -41.429688 C 2.210938 -40.101562 1.933594 -38.667969 2.042969 -37.339844 C 2.429688 -30.160156 2.816406 -22.921875 3.425781 -15.742188 C 3.644531 -12.871094 4.308594 -9.941406 5.027344 -7.125 C 5.523438 -5.304688 6.960938 -4.199219 8.949219 -4.144531 C 11.046875 -4.085938 12.484375 -5.246094 13.035156 -7.125 C 13.699219 -9.226562 14.140625 -11.378906 14.417969 -13.53125 C 14.859375 -16.460938 16.238281 -18.78125 18.671875 -20.933594 C 19.113281 -19.773438 19.609375 -18.945312 19.71875 -18.117188 C 20.050781 -16.128906 20.160156 -14.085938 20.492188 -12.152344 C 20.714844 -10.660156 20.878906 -9.113281 21.433594 -7.734375 C 22.316406 -5.414062 24.800781 -5.136719 26.347656 -7.070312 C 28.003906 -9.167969 29 -11.601562 28.558594 -14.25 Z M 28.558594 -14.25 "/></g></g></g><g fill="rgb(100%, 74.119568%, 34.899902%)" fill-opacity="1"><g transform="translate(76.75511, 167.851359)"><g><path d="M 28.390625 -11.046875 C 27.5625 -14.859375 26.957031 -18.78125 26.128906 -22.648438 C 25.851562 -23.863281 25.519531 -25.464844 24.636719 -26.183594 C 21.984375 -28.226562 19.058594 -29.992188 15.355469 -29.386719 C 8.894531 -28.226562 2.597656 -21.15625 2.042969 -14.25 C 1.546875 -7.898438 6.628906 -3.480469 12.925781 -4.972656 C 14.582031 -5.414062 16.128906 -6.351562 17.675781 -7.125 C 18.226562 -7.402344 18.671875 -7.84375 19.222656 -8.230469 C 19.5 -7.84375 19.71875 -7.621094 19.886719 -7.347656 C 21.707031 -4.585938 24.082031 -3.535156 26.292969 -4.472656 C 28.449219 -5.414062 29.109375 -7.734375 28.390625 -11.046875 Z M 12.375 -12.980469 C 11.765625 -12.761719 10.882812 -12.703125 10.328125 -12.980469 C 9.996094 -13.148438 9.996094 -14.304688 10.21875 -14.859375 C 11.433594 -18.285156 13.367188 -21.046875 17.070312 -22.59375 C 17.730469 -18.339844 15.742188 -14.304688 12.375 -12.980469 Z M 12.375 -12.980469 "/></g></g></g><g fill="rgb(100%, 74.119568%, 34.899902%)" fill-opacity="1"><g transform="translate(107.518464, 167.851359)"><g><path d="M 25.742188 -21.210938 C 23.421875 -25.90625 19.5 -27.730469 14.417969 -26.402344 C 12.648438 -25.90625 10.9375 -25.078125 9.167969 -24.414062 C 9.003906 -24.582031 8.78125 -24.746094 8.617188 -24.96875 C 7.015625 -26.457031 5.359375 -26.128906 4.859375 -23.917969 C 4.199219 -21.15625 4.03125 -18.226562 3.257812 -15.464844 C 1.050781 -7.234375 2.652344 1.160156 2.042969 9.445312 C 1.988281 9.554688 2.042969 9.722656 2.097656 9.832031 C 2.539062 11.875 4.085938 13.367188 6.074219 13.53125 C 8.066406 13.699219 9.941406 12.539062 10.605469 10.496094 C 10.9375 9.445312 11.046875 8.230469 11.046875 7.070312 C 11.15625 4.199219 11.101562 1.324219 11.101562 -1.769531 C 11.988281 -1.601562 12.539062 -1.492188 13.148438 -1.4375 C 19.71875 -0.332031 26.570312 -4.804688 27.398438 -10.882812 C 27.894531 -14.472656 27.34375 -17.953125 25.742188 -21.210938 Z M 14.03125 -10.9375 C 10.109375 -11.214844 9.722656 -11.929688 11.65625 -15.464844 C 12.761719 -17.511719 14.140625 -19.058594 16.460938 -19.71875 C 18.171875 -20.160156 19.222656 -19.554688 19.554688 -17.953125 C 20.605469 -12.761719 19.113281 -10.496094 14.03125 -10.9375 Z M 14.03125 -10.9375 "/></g></g></g><g fill="rgb(100%, 74.119568%, 34.899902%)" fill-opacity="1"><g transform="translate(137.23244, 167.851359)"><g><path d="M 25.742188 -21.210938 C 23.421875 -25.90625 19.5 -27.730469 14.417969 -26.402344 C 12.648438 -25.90625 10.9375 -25.078125 9.167969 -24.414062 C 9.003906 -24.582031 8.78125 -24.746094 8.617188 -24.96875 C 7.015625 -26.457031 5.359375 -26.128906 4.859375 -23.917969 C 4.199219 -21.15625 4.03125 -18.226562 3.257812 -15.464844 C 1.050781 -7.234375 2.652344 1.160156 2.042969 9.445312 C 1.988281 9.554688 2.042969 9.722656 2.097656 9.832031 C 2.539062 11.875 4.085938 13.367188 6.074219 13.53125 C 8.066406 13.699219 9.941406 12.539062 10.605469 10.496094 C 10.9375 9.445312 11.046875 8.230469 11.046875 7.070312 C 11.15625 4.199219 11.101562 1.324219 11.101562 -1.769531 C 11.988281 -1.601562 12.539062 -1.492188 13.148438 -1.4375 C 19.71875 -0.332031 26.570312 -4.804688 27.398438 -10.882812 C 27.894531 -14.472656 27.34375 -17.953125 25.742188 -21.210938 Z M 14.03125 -10.9375 C 10.109375 -11.214844 9.722656 -11.929688 11.65625 -15.464844 C 12.761719 -17.511719 14.140625 -19.058594 16.460938 -19.71875 C 18.171875 -20.160156 19.222656 -19.554688 19.554688 -17.953125 C 20.605469 -12.761719 19.113281 -10.496094 14.03125 -10.9375 Z M 14.03125 -10.9375 "/></g></g></g><g fill="rgb(100%, 74.119568%, 34.899902%)" fill-opacity="1"><g transform="translate(166.946417, 167.851359)"><g><path d="M 25.1875 -27.730469 C 23.089844 -28.722656 20.933594 -27.894531 19.332031 -25.410156 C 17.566406 -22.648438 15.910156 -19.832031 14.25 -17.011719 C 13.589844 -15.910156 12.925781 -14.804688 12.097656 -13.3125 C 11.488281 -14.417969 11.046875 -15.136719 10.660156 -15.910156 C 9.445312 -18.558594 8.339844 -21.320312 7.070312 -23.972656 C 6.460938 -25.242188 5.578125 -26.402344 3.867188 -25.960938 C 2.320312 -25.574219 1.933594 -24.195312 2.042969 -22.8125 C 2.152344 -20.546875 2.097656 -18.117188 2.816406 -15.964844 C 4.144531 -11.988281 5.855469 -8.175781 7.621094 -4.363281 C 8.121094 -3.203125 8.066406 -2.429688 7.566406 -1.382812 C 6.242188 1.546875 4.917969 4.472656 3.757812 7.457031 C 3.3125 8.617188 3.148438 9.996094 3.09375 11.269531 C 3.09375 12.871094 3.867188 14.304688 5.414062 14.636719 C 6.683594 14.859375 8.285156 14.691406 9.390625 14.085938 C 10.441406 13.589844 11.15625 12.316406 11.710938 11.214844 C 15.578125 3.8125 19.445312 -3.589844 23.089844 -11.101562 C 24.746094 -14.527344 26.070312 -18.117188 27.289062 -21.761719 C 28.171875 -24.527344 27.230469 -26.789062 25.1875 -27.730469 Z M 25.1875 -27.730469 "/></g></g></g><g fill="rgb(100%, 74.119568%, 34.899902%)" fill-opacity="1"><g transform="translate(196.660393, 167.851359)"><g/></g></g><g fill="rgb(100%, 74.119568%, 34.899902%)" fill-opacity="1"><g transform="translate(212.511524, 167.851359)"><g><path d="M 10.164062 -28.390625 C 10.769531 -32.976562 12.261719 -34.632812 12.59375 -39.273438 C 13.476562 -43.691406 11.214844 -45.019531 9.390625 -44.90625 C 7.125 -44.742188 6.847656 -44.191406 6.519531 -43.472656 C 5.855469 -42.035156 5.304688 -40.433594 5.082031 -38.832031 C 4.085938 -31.707031 3.148438 -24.582031 2.429688 -17.398438 C 2.042969 -13.863281 1.988281 -10.273438 2.042969 -6.683594 C 2.097656 -3.425781 4.472656 -2.042969 7.511719 -3.148438 C 8.121094 -3.425781 8.894531 -3.257812 9.609375 -3.148438 C 11.820312 -2.871094 14.085938 -2.042969 16.238281 -2.320312 C 27.453125 -3.644531 32.8125 -14.527344 27.398438 -24.691406 C 24.855469 -29.441406 20.21875 -31.152344 15.246094 -29 C 13.589844 -28.28125 11.988281 -27.175781 10.109375 -26.128906 C 10.109375 -27.066406 10.054688 -27.730469 10.164062 -28.390625 Z M 10.9375 -10.992188 C 10.441406 -11.15625 9.886719 -12.042969 9.941406 -12.539062 C 10.109375 -15.851562 15.410156 -22.148438 18.558594 -22.8125 C 19.167969 -22.980469 20.273438 -22.371094 20.546875 -21.820312 C 21.046875 -20.878906 21.101562 -19.664062 21.375 -18.558594 C 21.265625 -13.644531 15.632812 -9.554688 10.9375 -10.992188 Z M 10.9375 -10.992188 "/></g></g></g><g fill="rgb(100%, 74.119568%, 34.899902%)" fill-opacity="1"><g transform="translate(244.158557, 167.851359)"><g><path d="M 23.808594 -26.734375 C 21.652344 -28.945312 19 -30.378906 15.964844 -30.933594 C 11.542969 -31.761719 7.511719 -29.992188 5.027344 -26.292969 C 3.148438 -23.421875 2.375 -20.21875 2.097656 -16.847656 C 1.382812 -8.78125 6.960938 -2.042969 17.125 -3.09375 C 18.558594 -3.203125 20.273438 -4.199219 21.320312 -5.246094 C 23.253906 -7.292969 22.59375 -9.722656 19.941406 -10.550781 C 18.117188 -11.15625 16.128906 -11.214844 14.25 -11.542969 C 13.257812 -11.765625 12.316406 -12.097656 11.324219 -12.429688 C 14.75 -13.035156 18.0625 -13.257812 21.046875 -14.304688 C 26.734375 -16.296875 28.003906 -22.371094 23.808594 -26.734375 Z M 18.890625 -21.433594 C 16.40625 -21.15625 13.863281 -20.878906 11.101562 -20.605469 C 11.542969 -22.261719 12.261719 -23.53125 13.917969 -24.027344 C 15.796875 -24.582031 18.117188 -23.640625 19.554688 -21.707031 C 19.222656 -21.542969 19.058594 -21.433594 18.890625 -21.433594 Z M 18.890625 -21.433594 "/></g></g></g><g fill="rgb(100%, 74.119568%, 34.899902%)" fill-opacity="1"><g transform="translate(272.546998, 167.851359)"><g><path d="M 9.941406 -35.242188 C 9.832031 -36.675781 9.722656 -38.222656 9.058594 -39.441406 C 8.617188 -40.324219 7.347656 -41.316406 6.40625 -41.316406 C 5.46875 -41.316406 4.363281 -40.324219 3.644531 -39.496094 C 3.148438 -38.832031 2.984375 -37.78125 2.871094 -36.84375 C 2.375 -31.375 1.933594 -13.917969 2.042969 -10.714844 C 2.042969 -9.335938 2.265625 -7.953125 2.597656 -6.628906 C 3.203125 -4.53125 4.695312 -3.3125 6.40625 -3.257812 C 8.121094 -3.203125 9.832031 -4.308594 10.382812 -6.40625 C 10.9375 -8.78125 11.378906 -11.214844 11.269531 -13.644531 C 10.992188 -20.824219 10.441406 -28.0625 9.941406 -35.242188 Z M 9.941406 -35.242188 "/></g></g></g><g fill="rgb(100%, 74.119568%, 34.899902%)" fill-opacity="1"><g transform="translate(285.912758, 167.851359)"><g><path d="M 9.941406 -35.242188 C 9.832031 -36.675781 9.722656 -38.222656 9.058594 -39.441406 C 8.617188 -40.324219 7.347656 -41.316406 6.40625 -41.316406 C 5.46875 -41.316406 4.363281 -40.324219 3.644531 -39.496094 C 3.148438 -38.832031 2.984375 -37.78125 2.871094 -36.84375 C 2.375 -31.375 1.933594 -13.917969 2.042969 -10.714844 C 2.042969 -9.335938 2.265625 -7.953125 2.597656 -6.628906 C 3.203125 -4.53125 4.695312 -3.3125 6.40625 -3.257812 C 8.121094 -3.203125 9.832031 -4.308594 10.382812 -6.40625 C 10.9375 -8.78125 11.378906 -11.214844 11.269531 -13.644531 C 10.992188 -20.824219 10.441406 -28.0625 9.941406 -35.242188 Z M 9.941406 -35.242188 "/></g></g></g><g fill="rgb(100%, 74.119568%, 34.899902%)" fill-opacity="1"><g transform="translate(299.278518, 167.851359)"><g><path d="M 25.1875 -27.730469 C 23.089844 -28.722656 20.933594 -27.894531 19.332031 -25.410156 C 17.566406 -22.648438 15.910156 -19.832031 14.25 -17.011719 C 13.589844 -15.910156 12.925781 -14.804688 12.097656 -13.3125 C 11.488281 -14.417969 11.046875 -15.136719 10.660156 -15.910156 C 9.445312 -18.558594 8.339844 -21.320312 7.070312 -23.972656 C 6.460938 -25.242188 5.578125 -26.402344 3.867188 -25.960938 C 2.320312 -25.574219 1.933594 -24.195312 2.042969 -22.8125 C 2.152344 -20.546875 2.097656 -18.117188 2.816406 -15.964844 C 4.144531 -11.988281 5.855469 -8.175781 7.621094 -4.363281 C 8.121094 -3.203125 8.066406 -2.429688 7.566406 -1.382812 C 6.242188 1.546875 4.917969 4.472656 3.757812 7.457031 C 3.3125 8.617188 3.148438 9.996094 3.09375 11.269531 C 3.09375 12.871094 3.867188 14.304688 5.414062 14.636719 C 6.683594 14.859375 8.285156 14.691406 9.390625 14.085938 C 10.441406 13.589844 11.15625 12.316406 11.710938 11.214844 C 15.578125 3.8125 19.445312 -3.589844 23.089844 -11.101562 C 24.746094 -14.527344 26.070312 -18.117188 27.289062 -21.761719 C 28.171875 -24.527344 27.230469 -26.789062 25.1875 -27.730469 Z M 25.1875 -27.730469 "/></g></g></g></svg>